<?xml version="1.0" encoding="UTF-8"?>
<svg fill="#fff" xmlns="http://www.w3.org/2000/svg" id="Layer_1" data-name="Layer 1" viewBox="0 0 24 24">
  <path d="M22.852,1.729c-.196-.194-.514-.192-.707,.005l-4.407,4.467c-1.722-1.615-4.285-3.132-7.584-.381-.382,.217-3.561,2.02-5.34,2.937-1.16,.599-2.94,1.311-3.01,1.342-.431,.232-.7,.635-.779,1.164-.261,1.737,1.584,4.709,5.194,8.369,1.822,1.847,3.688,2.783,5.548,2.783h0c1.577,0,3.141-.706,4.404-1.987,2.059-2.088,2.594-5.279,2.693-6.022,2.644-3.251,1.167-5.785-.423-7.497l4.413-4.473c.194-.196,.192-.513-.004-.707Zm-7.393,17.997c-1.089,1.105-2.365,1.689-3.691,1.689h0c-1.022,0-2.063-.35-3.111-1.042,.235-.154,.648-.432,.95-.667,.702-.548,1.841-1.658,1.889-1.705,.197-.193,.201-.51,.008-.708-.191-.196-.509-.2-.707-.008-.011,.011-1.146,1.118-1.805,1.631-.31,.242-.747,.531-.945,.661l-.245,.155c-.29-.242-.58-.51-.87-.804-1.239-1.255-2.17-2.325-2.869-3.231,.015-.006,.028-.011,.037-.014,.29-.114,.935-.376,1.402-.609,.977-.488,2.62-1.554,2.689-1.599,.231-.151,.297-.46,.146-.692-.15-.232-.462-.297-.691-.147-.017,.011-1.665,1.081-2.592,1.543-.44,.22-1.05,.466-1.322,.574-.044,.017-.169,.064-.285,.106-1.446-2.085-1.484-3.107-1.432-3.449,.042-.282,.171-.381,.213-.408,.074-.03,1.842-.737,3.046-1.358,1.555-.802,4.162-2.27,5.081-2.79l7.505,7.523c-.123,.81-.656,3.58-2.399,5.346Zm2.884-6.275l-7.156-7.174c2.125-1.578,3.949-1.278,6.188,.968,2.241,2.247,2.541,4.077,.967,6.206Z"/>
</svg>
